<?xml version="1.0" encoding="UTF-8"?>
<svg width="35px" height="34px" viewBox="0 0 35 34" version="1.1" xmlns="http://www.w3.org/2000/svg" xmlns:xlink="http://www.w3.org/1999/xlink">
    <title>Group 17</title>
    <defs>
        <polygon id="path-1" points="0 0 34.2535211 0 34.2535211 34 0 34"></polygon>
    </defs>
    <g id="Page-1" stroke="none" stroke-width="1" fill="none" fill-rule="evenodd">
        <g id="Noticia-desktop-especial---apertura-tipo-2" transform="translate(-631.000000, -4323.000000)">
            <g id="Group-15" transform="translate(594.000000, 4274.000000)">
                <g id="Group-17" transform="translate(37.000000, 49.000000)">
                    <mask id="mask-2" fill="white">
                        <use xlink:href="#path-1"></use>
                    </mask>
                    <g id="a"></g>
                    <path d="M17.1267606,31.875 C8.85366646,31.875 2.14084507,25.2118623 2.14084507,17 C2.14084507,8.78813768 8.85366646,2.125 17.1267606,2.125 C25.3998547,2.125 32.1126761,8.78813768 32.1126761,17 C32.1126761,25.2118623 25.3998547,31.875 17.1267606,31.875 M17.1267606,0 C7.66679437,0 0,7.61005 0,17 C0,26.38995 7.66679437,34 17.1267606,34 C26.5867268,34 34.2535211,26.38995 34.2535211,17 C34.2535211,7.61005 26.5867268,0 17.1267606,0" id="Shape" fill="#FFFFFF" fill-rule="nonzero" mask="url(#mask-2)"></path>
                    <path d="M14.6137964,23.9166255 L23.2571447,19.0131503 C24.28513,18.4299619 24.6457092,17.1238476 24.0625208,16.0958623 C23.8716826,15.7594721 23.5932498,15.4810869 23.2568271,15.2903061 L14.6134788,10.38878 C13.585394,9.80576697 12.2793412,10.1665689 11.6963282,11.1946537 C11.5137922,11.5165377 11.4178404,11.8802534 11.4178404,12.2502921 L11.4178404,22.0552935 C11.4178404,23.2371829 12.375951,24.1952935 13.5578404,24.1952935 C13.9280029,24.1952935 14.2918359,24.0992776 14.6137964,23.9166255 Z" id="Path" fill="#FFFFFF" fill-rule="nonzero" mask="url(#mask-2)"></path>
                </g>
            </g>
        </g>
    </g>
</svg>